<svg aria-hidden="true" style="position: absolute; width: 0; height: 0; overflow: hidden;" version="1.1" xmlns="http://www.w3.org/2000/svg" xmlns:xlink="http://www.w3.org/1999/xlink">
<defs>
<symbol id="icon-diamond" viewBox="0 0 32 32">
<path d="M31.414 9.677l-5.080-5.081c-0.375-0.375-0.885-0.586-1.414-0.586h-17.839c-0.53 0-1.039 0.211-1.414 0.586l-5.080 5.081c-0.393 0.392-0.589 0.909-0.587 1.427 0.003 0.47 0.171 0.939 0.506 1.316l13.999 14.908c0.38 0.428 0.924 0.672 1.495 0.672s1.115-0.244 1.494-0.672l14-14.908c0.342-0.385 0.51-0.867 0.506-1.348-0.004-0.506-0.201-1.010-0.586-1.395zM18.219 11.010h-4.439l2.22-1.849 2.219 1.849zM16.782 8.51l2.732-2.278 2.018 2.018-2.532 2.109-2.218-1.849zM13 10.359l-2.532-2.109 2.018-2.018 2.733 2.278-2.219 1.849zM18.49 12.010l-2.49 12.453-2.49-12.453h4.98zM19.51 12.010h4.906l-7.359 12.269 2.453-12.269zM19.779 11.010l2.463-2.051 2.051 2.051h-4.514zM20.707 6.010h3.512l-1.916 1.597-1.596-1.597zM16 7.86l-2.22-1.85h4.438l-2.218 1.85zM9.696 7.607l-1.916-1.597h3.513l-1.597 1.597zM9.758 8.959l2.462 2.051h-4.513l2.051-2.051zM12.49 12.010l2.453 12.269-7.36-12.269h4.907zM12.704 22.488l-9.84-10.478h3.554l6.286 10.478zM25.582 12.010h3.555l-9.842 10.48 6.287-10.48zM25.707 11.010l-2.693-2.693 2.297-1.915 4.607 4.608h-4.211zM6.686 6.4l2.301 1.917-2.694 2.693h-4.287l4.68-4.61z"></path>
</symbol>
<symbol id="icon-t-shirt" viewBox="0 0 32 32">
<path d="M31.25 6.438l-5-4c-0.355-0.284-0.797-0.438-1.25-0.438h-18c-0.454 0-0.895 0.154-1.25 0.438l-5 4c-0.654 0.524-0.912 1.4-0.647 2.195l2 6c0.197 0.591 0.659 1.057 1.249 1.259 0.21 0.072 0.43 0.108 0.648 0.108 0.348 0 0.693-0.091 1-0.268v12.268c0 1.104 0.896 2 2 2h18c1.104 0 2-0.896 2-2v-12.268c0.307 0.177 0.652 0.268 1 0.268 0.219 0 0.438-0.036 0.648-0.108 0.59-0.202 1.051-0.668 1.248-1.259l2-6c0.266-0.795 0.008-1.671-0.646-2.195zM19.754 4c-0.553 1.161-2.018 2-3.754 2s-3.202-0.839-3.754-2h7.508zM28 14l-3-2v16h-18v-16l-3 2-2-6 5-4h4.177c0.557 1.722 2.496 3 4.823 3s4.266-1.278 4.822-3h4.178l5 4-2 6z"></path>
</symbol>
<symbol id="icon-mobile" viewBox="0 0 32 32">
<path d="M23 0h-14c-1.65 0-3 1.35-3 3v26c0 1.65 1.35 3 3 3h14c1.65 0 3-1.35 3-3v-26c0-1.65-1.35-3-3-3zM12 1.5h8v1h-8v-1zM16 30c-1.105 0-2-0.895-2-2s0.895-2 2-2 2 0.895 2 2-0.895 2-2 2zM24 24h-16v-20h16v20z"></path>
</symbol>
<symbol id="icon-mug" viewBox="0 0 32 32">
<path d="M30 10h-6v-3c0-2.761-5.373-5-12-5s-12 2.239-12 5v20c0 2.761 5.373 5 12 5s12-2.239 12-5v-3h6c1.105 0 2-0.895 2-2v-10c0-1.105-0.895-2-2-2zM5.502 8.075c-1.156-0.381-1.857-0.789-2.232-1.075 0.375-0.286 1.075-0.694 2.232-1.075 1.811-0.597 4.118-0.925 6.498-0.925s4.688 0.329 6.498 0.925c1.156 0.381 1.857 0.789 2.232 1.075-0.375 0.286-1.076 0.694-2.232 1.075-1.811 0.597-4.118 0.925-6.498 0.925s-4.688-0.329-6.498-0.925zM28 20h-4v-6h4v6z"></path>
</symbol>
</defs>
</svg>
